<svg width="20" height="20" viewBox="0 0 20 20" fill="none" xmlns="http://www.w3.org/2000/svg">
<path d="M17.4219 1.5625H15.625V0.625C15.625 0.279844 15.3452 0 15 0C14.6548 0 14.375 0.279844 14.375 0.625V1.5625H5.625V0.625C5.625 0.279844 5.3452 0 5 0C4.6548 0 4.375 0.279844 4.375 0.625V1.5625H2.57812C1.15652 1.5625 0 2.71902 0 4.14062V17.4219C0 18.8435 1.15652 20 2.57812 20H17.4219C18.8435 20 20 18.8435 20 17.4219V4.14062C20 2.71902 18.8435 1.5625 17.4219 1.5625ZM18.75 17.4219C18.75 18.1554 18.1554 18.75 17.4219 18.75H2.57812C1.84461 18.75 1.25 18.1554 1.25 17.4219V7.07031C1.25 6.96246 1.33746 6.875 1.44531 6.875H18.5547C18.6625 6.875 18.75 6.96246 18.75 7.07031V17.4219Z" fill="#6195FF"/>
</svg>
