<svg width="10" height="10" viewBox="0 0 10 10" fill="none" xmlns="http://www.w3.org/2000/svg">
<path d="M5 0C2.2387 0 0 2.2387 0 5C0 7.7613 2.2387 10 5 10C7.7613 10 10 7.7613 10 5C10 2.2387 7.7613 0 5 0ZM7.30769 5.76923H5C4.89799 5.76923 4.80017 5.72871 4.72804 5.65658C4.65591 5.58445 4.61538 5.48662 4.61538 5.38462V1.92308C4.61538 1.82107 4.65591 1.72324 4.72804 1.65111C4.80017 1.57898 4.89799 1.53846 5 1.53846C5.10201 1.53846 5.19984 1.57898 5.27196 1.65111C5.34409 1.72324 5.38462 1.82107 5.38462 1.92308V5H7.30769C7.4097 5 7.50753 5.04052 7.57966 5.11265C7.65179 5.18478 7.69231 5.28261 7.69231 5.38462C7.69231 5.48662 7.65179 5.58445 7.57966 5.65658C7.50753 5.72871 7.4097 5.76923 7.30769 5.76923Z" fill="white"/>
</svg>
