<svg width="16" height="18" viewBox="0 0 16 18" fill="none" xmlns="http://www.w3.org/2000/svg">
<path d="M15.5792 18H13.7553C13.7553 14.9231 11.1745 12.4207 8 12.4207C4.82551 12.4207 2.24562 14.924 2.24562 18H0.421722C0.421722 13.9163 3.82237 10.5968 8.00091 10.5968C12.1785 10.5968 15.5792 13.9163 15.5792 18Z" fill="#6195FF"/>
<path d="M8.0009 10.0041C5.24409 10.0041 2.99979 7.75884 2.99979 5.00203C2.99887 2.2443 5.24318 0 8.0009 0C10.7595 0 13.0038 2.24339 13.0038 5.00203C13.0038 7.76066 10.7595 10.0041 8.0009 10.0041ZM8.0009 1.82389C6.24814 1.82389 4.82277 3.24927 4.82277 5.00203C4.82277 6.75479 6.24814 8.18016 8.0009 8.18016C9.75457 8.18016 11.1799 6.75479 11.1799 5.00203C11.1799 3.24927 9.75275 1.82389 8.0009 1.82389Z" fill="#6195FF"/>
</svg>
