<svg width="16" height="18" viewBox="0 0 16 18" fill="none" xmlns="http://www.w3.org/2000/svg">
<path d="M13.0625 6.60938H11.7956V3.71848C11.7956 1.66809 10.0923 0 7.9987 0C5.90511 0 4.20182 1.66809 4.20182 3.71848V6.60938H2.9375C1.77439 6.60938 0.828125 7.55564 0.828125 8.71875V15.8906C0.828125 17.0537 1.77439 18 2.9375 18H13.0625C14.2256 18 15.1719 17.0537 15.1719 15.8906V8.71875C15.1719 7.55564 14.2256 6.60938 13.0625 6.60938ZM5.60807 3.71848C5.60807 2.4435 6.68052 1.40625 7.9987 1.40625C9.31688 1.40625 10.3893 2.4435 10.3893 3.71848V6.60938H5.60807V3.71848ZM13.7656 15.8906C13.7656 16.2783 13.4502 16.5938 13.0625 16.5938H2.9375C2.5498 16.5938 2.23438 16.2783 2.23438 15.8906V8.71875C2.23438 8.33105 2.5498 8.01562 2.9375 8.01562H13.0625C13.4502 8.01562 13.7656 8.33105 13.7656 8.71875V15.8906Z" fill="#6195FF"/>
</svg>
