<svg width="15" height="13" viewBox="0 0 15 13" fill="none" xmlns="http://www.w3.org/2000/svg">
<path d="M0.000394993 5.52094C-0.00613018 6.08799 0.343418 6.59833 0.874501 6.79716V4.36712C0.874501 4.33216 0.891968 4.27972 0.891968 4.24475C0.357305 4.44198 0.00170003 4.95101 0.000394993 5.52094Z" fill="#6195FF"/>
<path d="M4.77283 8.52783H2.48264L3.33927 11.6397C3.46613 12.1146 3.89665 12.4447 4.38822 12.4439C4.73796 12.4481 5.06887 12.2858 5.27982 12.0069C5.49281 11.7414 5.5585 11.3869 5.45463 11.0628L4.77283 8.52783Z" fill="#6195FF"/>
<path d="M0.891724 4.22731H0.909191V4.20984C0.909191 4.22731 0.909191 4.22731 0.891724 4.22731Z" fill="#6195FF"/>
<path d="M13.4266 3.98254H13.2868V7.12938H13.4266C14.2956 7.12938 15.0001 6.42493 15.0001 5.55598C15.0001 4.687 14.2956 3.98254 13.4266 3.98254Z" fill="#6195FF"/>
<path d="M1.39883 4.36712V6.84963C1.41774 7.49251 1.94451 8.00375 2.58762 8.00348H5.76943V3.2832H2.58762C1.95826 3.2832 1.39883 3.73776 1.39883 4.36712Z" fill="#6195FF"/>
<path d="M6.29376 8.07334L12.7622 10.6608V0.555908L6.29376 3.14332V8.07334Z" fill="#6195FF"/>
</svg>
