<svg width="18" height="18" viewBox="0 0 18 18" fill="none" xmlns="http://www.w3.org/2000/svg">
<path d="M16.6786 4.30444L17.5516 3.43158C17.6966 3.28642 17.7444 3.07027 17.674 2.87759C17.6035 2.68478 17.4276 2.55048 17.223 2.53317L15.6035 2.39653L15.4668 0.777008C15.4497 0.572525 15.3152 0.396606 15.1225 0.326157C14.9299 0.255569 14.7137 0.30336 14.5686 0.448517L13.6956 1.32138C12.2838 0.455795 10.6696 0 9 0C6.59605 0 4.33589 0.936172 2.63603 2.63603C0.936172 4.33589 0 6.59605 0 9C0 11.4039 0.936172 13.6641 2.63603 15.364C4.33589 17.0638 6.59605 18 9 18C11.4039 18 13.6641 17.0638 15.364 15.364C17.0638 13.6641 18 11.4039 18 9C18 7.33035 17.5442 5.71632 16.6786 4.30444ZM14.5898 2.92896C14.6115 3.18521 14.8148 3.38846 15.071 3.41016L16.0028 3.48871L14.7416 4.74994L13.3661 4.6339L13.2501 3.25841L14.5113 1.99718L14.5898 2.92896ZM10.793 9C10.793 9.98863 9.98863 10.793 9 10.793C8.01137 10.793 7.20703 9.98863 7.20703 9C7.20703 8.01137 8.01137 7.20703 9 7.20703C9.30281 7.20703 9.58804 7.2827 9.83839 7.41577L8.62715 8.62715C8.42116 8.83301 8.42116 9.16685 8.62715 9.37285C8.73001 9.47585 8.86501 9.52734 9 9.52734C9.13499 9.52734 9.26999 9.47585 9.37285 9.37285L10.5842 8.16161C10.7173 8.41196 10.793 8.69719 10.793 9ZM10.605 6.6492C10.1477 6.33609 9.59491 6.15234 9 6.15234C7.42978 6.15234 6.15234 7.42978 6.15234 9C6.15234 10.5702 7.42978 11.8477 9 11.8477C10.5702 11.8477 11.8477 10.5702 11.8477 9C11.8477 8.40509 11.6639 7.85234 11.3508 7.39503L12.8565 5.88936C13.5444 6.74052 13.957 7.82295 13.957 9C13.957 11.7333 11.7333 13.957 9 13.957C6.26674 13.957 4.04297 11.7333 4.04297 9C4.04297 6.26674 6.26674 4.04297 9 4.04297C10.177 4.04297 11.2595 4.45564 12.1106 5.14352L10.605 6.6492ZM14.6181 14.6181C13.1175 16.1189 11.1223 16.9453 9 16.9453C6.87772 16.9453 4.88246 16.1189 3.38187 14.6181C1.88113 13.1175 1.05469 11.1223 1.05469 9C1.05469 6.87772 1.88113 4.88246 3.38187 3.38187C4.88246 1.88113 6.87772 1.05469 9 1.05469C10.3884 1.05469 11.7333 1.41133 12.926 2.09097L12.3312 2.68575C12.2351 2.78188 12.1803 2.91069 12.1768 3.04514C12.1764 3.06436 12.177 3.08359 12.1785 3.10295L12.2495 3.94437C11.3119 3.33957 10.1963 2.98828 9 2.98828C5.68515 2.98828 2.98828 5.68515 2.98828 9C2.98828 12.3148 5.68515 15.0117 9 15.0117C12.3148 15.0117 15.0117 12.3148 15.0117 9C15.0117 7.80373 14.6604 6.68806 14.0556 5.75052L14.897 5.82152C14.9119 5.82262 14.9267 5.8233 14.9414 5.8233C14.9439 5.8233 14.9465 5.82303 14.949 5.82289C14.956 5.82289 14.9628 5.82234 14.9698 5.82193C14.9812 5.82124 14.9928 5.82056 15.004 5.81918C15.011 5.81822 15.018 5.81712 15.025 5.81602C15.0362 5.81424 15.0471 5.81218 15.0581 5.80971C15.0651 5.80806 15.072 5.80627 15.0789 5.80449C15.0896 5.80161 15.1002 5.79831 15.1107 5.79474C15.1176 5.7924 15.1243 5.79007 15.1311 5.78746C15.1414 5.78348 15.1515 5.77908 15.1617 5.77428C15.1681 5.77139 15.1746 5.76851 15.181 5.76521C15.1912 5.75999 15.2011 5.75423 15.2108 5.74846C15.2168 5.74489 15.2227 5.74159 15.2284 5.73802C15.2389 5.73116 15.2489 5.72374 15.2589 5.71619C15.2636 5.71262 15.2684 5.70946 15.2729 5.70575C15.2872 5.69421 15.3011 5.68199 15.3143 5.66881L15.909 5.07404C16.5887 6.26674 16.9453 7.6116 16.9453 9C16.9453 11.1223 16.1189 13.1175 14.6181 14.6181Z" fill="#6195FF"/>
</svg>
