<svg width="27" height="27" viewBox="0 0 27 27" fill="none" xmlns="http://www.w3.org/2000/svg">
<circle cx="13.5" cy="13.5" r="13" fill="white" stroke="#3BE8B0"/>
<g clip-path="url(#clip0_601_566)">
<path d="M20.3961 16.5178C20.683 16.1518 20.8206 15.7595 20.803 15.3555C20.7854 14.9105 20.5864 14.5621 20.4224 14.3484C20.6127 13.8741 20.6859 13.1276 20.0506 12.5479C19.5851 12.1234 18.7946 11.9331 17.6997 11.9858C16.9297 12.0209 16.2857 12.1644 16.2593 12.1702H16.2564C16.11 12.1966 15.9548 12.2288 15.7967 12.2639C15.785 12.0765 15.8172 11.611 16.1627 10.5629C16.5726 9.31577 16.5491 8.36136 16.0866 7.72313C15.6006 7.0527 14.8248 7 14.5964 7C14.3768 7 14.1748 7.09076 14.0314 7.25763C13.7064 7.6353 13.7445 8.33208 13.7854 8.65412C13.399 9.69051 12.3158 12.2317 11.3994 12.9373C11.3818 12.949 11.3672 12.9636 11.3526 12.9783C11.0832 13.2622 10.9017 13.5696 10.7788 13.839C10.606 13.7453 10.4099 13.6926 10.1991 13.6926H8.41321C7.73985 13.6926 7.19531 14.2401 7.19531 14.9105V19.6679C7.19531 20.3413 7.74278 20.8858 8.41321 20.8858H10.1991C10.4596 20.8858 10.7026 20.8038 10.9017 20.6633L11.5897 20.7453C11.6951 20.7599 13.5688 20.9971 15.4923 20.959C15.8406 20.9854 16.1685 21 16.473 21C16.9971 21 17.4538 20.959 17.8344 20.877C18.7302 20.6867 19.3421 20.3061 19.6524 19.747C19.8896 19.3195 19.8896 18.895 19.8515 18.6257C20.4341 18.0987 20.5366 17.5161 20.5161 17.1062C20.5044 16.8691 20.4517 16.6671 20.3961 16.5178ZM8.41321 20.0954C8.17607 20.0954 7.98578 19.9021 7.98578 19.6679V14.9076C7.98578 14.6704 8.179 14.4801 8.41321 14.4801H10.1991C10.4362 14.4801 10.6265 14.6734 10.6265 14.9076V19.665C10.6265 19.9021 10.4333 20.0924 10.1991 20.0924H8.41321V20.0954ZM19.6466 16.1752C19.5236 16.3041 19.5002 16.5002 19.5939 16.6524C19.5939 16.6554 19.7139 16.8603 19.7286 17.1414C19.7491 17.5249 19.5646 17.8645 19.1782 18.1543C19.0406 18.2597 18.9849 18.4412 19.0435 18.6052C19.0435 18.6081 19.1694 18.9946 18.9644 19.3605C18.7683 19.7118 18.3321 19.9636 17.6704 20.1041C17.1405 20.2183 16.4203 20.2388 15.5362 20.1685C15.5245 20.1685 15.5098 20.1685 15.4952 20.1685C13.6127 20.2095 11.7097 19.9636 11.6892 19.9607H11.6863L11.3906 19.9256C11.4082 19.8436 11.417 19.7558 11.417 19.6679V14.9076C11.417 14.7817 11.3965 14.6587 11.3614 14.5445C11.414 14.3484 11.5604 13.9122 11.9059 13.5404C13.2204 12.4981 14.5056 8.98202 14.5613 8.82978C14.5847 8.7683 14.5905 8.70096 14.5788 8.63363C14.5291 8.30573 14.5466 7.90464 14.6169 7.78461C14.7721 7.78754 15.1907 7.83145 15.4425 8.17984C15.7411 8.59264 15.7294 9.33041 15.4074 10.3082C14.9155 11.7984 14.8745 12.583 15.2639 12.9285C15.4571 13.1012 15.7148 13.11 15.9021 13.0427C16.0807 13.0017 16.2505 12.9665 16.4115 12.9402C16.4233 12.9373 16.4379 12.9343 16.4496 12.9314C17.3484 12.7353 18.9586 12.6152 19.5178 13.1246C19.9921 13.5579 19.6554 14.1317 19.6173 14.1932C19.509 14.3572 19.5412 14.5709 19.6876 14.7026C19.6905 14.7056 19.9979 14.9954 20.0125 15.3848C20.0243 15.6453 19.9013 15.9118 19.6466 16.1752Z" fill="#0ACF97"/>
</g>
<defs>
<clipPath id="clip0_601_566">
<rect width="14" height="14" fill="white" transform="translate(7 7)"/>
</clipPath>
</defs>
</svg>
