<svg width="16" height="16" viewBox="0 0 16 16" fill="none" xmlns="http://www.w3.org/2000/svg">
<path d="M15.3102 10.8775C15.6381 10.4592 15.7954 10.0109 15.7753 9.54914C15.7552 9.04057 15.5277 8.64241 15.3403 8.39816C15.5578 7.85613 15.6414 7.00293 14.9154 6.34044C14.3834 5.85529 13.48 5.63781 12.2287 5.69803C11.3487 5.73818 10.6126 5.90213 10.5825 5.90882H10.5791C10.4118 5.93894 10.2345 5.97574 10.0538 6.01589C10.0404 5.80176 10.0773 5.26976 10.4721 4.07194C10.9405 2.64659 10.9137 1.55583 10.3851 0.826432C9.82966 0.0602259 8.943 0 8.68202 0C8.43108 0 8.20021 0.103722 8.03626 0.294437C7.66487 0.726056 7.70837 1.52238 7.75521 1.89042C7.31355 3.07486 6.07558 5.97909 5.02832 6.78545C5.00824 6.79883 4.99151 6.81556 4.97478 6.83229C4.66696 7.15684 4.45952 7.50816 4.31899 7.81598C4.12158 7.70891 3.89741 7.64868 3.65651 7.64868H1.61552C0.845967 7.64868 0.223633 8.27436 0.223633 9.04057V14.4776C0.223633 15.2472 0.849313 15.8695 1.61552 15.8695H3.65651C3.95429 15.8695 4.232 15.7758 4.45952 15.6152L5.2458 15.7089C5.36625 15.7256 7.50762 15.9967 9.70586 15.9532C10.104 15.9833 10.4788 16 10.8267 16C11.4256 16 11.9476 15.9532 12.3826 15.8595C13.4064 15.642 14.1057 15.207 14.4604 14.568C14.7314 14.0795 14.7314 13.5943 14.6879 13.2865C15.3537 12.6842 15.4708 12.0184 15.4474 11.55C15.434 11.279 15.3738 11.0481 15.3102 10.8775ZM1.61552 14.9661C1.3445 14.9661 1.12702 14.7453 1.12702 14.4776V9.03722C1.12702 8.76621 1.34785 8.54872 1.61552 8.54872H3.65651C3.92752 8.54872 4.145 8.76955 4.145 9.03722V14.4743C4.145 14.7453 3.92418 14.9628 3.65651 14.9628H1.61552V14.9661ZM14.4537 10.486C14.3131 10.6332 14.2864 10.8574 14.3934 11.0314C14.3934 11.0347 14.5306 11.2689 14.5473 11.5901C14.5708 12.0284 14.36 12.4166 13.9183 12.7478C13.7611 12.8683 13.6975 13.0757 13.7644 13.2631C13.7644 13.2664 13.9083 13.7081 13.6741 14.1263C13.4499 14.5278 12.9514 14.8156 12.1952 14.9762C11.5896 15.1066 10.7665 15.1301 9.75605 15.0498C9.74266 15.0498 9.72593 15.0498 9.7092 15.0498C7.5578 15.0966 5.38298 14.8156 5.35956 14.8122H5.35621L5.01828 14.7721C5.03835 14.6784 5.04839 14.578 5.04839 14.4776V9.03722C5.04839 8.89335 5.02497 8.75282 4.98482 8.62233C5.04505 8.39816 5.21234 7.89962 5.60715 7.4747C7.10945 6.28356 8.5783 2.26516 8.64187 2.09118C8.66863 2.02091 8.67533 1.94396 8.66194 1.867C8.60506 1.49226 8.62514 1.03388 8.70544 0.896696C8.88277 0.900042 9.36123 0.95023 9.64898 1.34839C9.99026 1.82016 9.97687 2.66332 9.60883 3.78084C9.04672 5.4839 8.99988 6.38059 9.44488 6.77541C9.66571 6.97281 9.96014 6.98285 10.1743 6.9059C10.3784 6.85905 10.5724 6.8189 10.7565 6.78879C10.7698 6.78545 10.7866 6.7821 10.8 6.77875C11.8271 6.55458 13.6674 6.4174 14.3064 6.99958C14.8485 7.49477 14.4637 8.15056 14.4202 8.22083C14.2964 8.4082 14.3332 8.65245 14.5005 8.80301C14.5038 8.80636 14.8552 9.1376 14.8719 9.5826C14.8853 9.88038 14.7448 10.1849 14.4537 10.486Z" fill="#0ACF97"/>
</svg>
