<svg width="27" height="27" viewBox="0 0 27 27" fill="none" xmlns="http://www.w3.org/2000/svg">
<circle cx="13.5" cy="13.5" r="13" fill="white" stroke="#FFC107"/>
<path d="M13.9997 7C10.9564 7 8.48047 9.47589 8.48047 12.5192C8.48047 14.4159 9.4422 16.092 10.9035 17.0859V20.5961C10.9035 20.7332 10.973 20.8609 11.0881 20.9352C11.2031 21.0097 11.3481 21.0206 11.4731 20.9644L13.9997 19.8275L16.5263 20.9644C16.5792 20.9882 16.6357 21 16.692 21C16.7686 21 16.8449 20.9782 16.9113 20.9353C17.0263 20.8609 17.0959 20.7332 17.0959 20.5962V17.086C18.5572 16.092 19.5189 14.4159 19.5189 12.5193C19.5189 9.47589 17.043 7 13.9997 7ZM16.2881 19.9716L14.1654 19.0164C14.1127 18.9926 14.0562 18.9808 13.9997 18.9808C13.9432 18.9808 13.8867 18.9926 13.834 19.0163L11.7112 19.9716V17.5425C11.9142 17.635 12.1225 17.7145 12.3348 17.7816C12.3468 17.7854 12.3589 17.7894 12.3709 17.7931C12.398 17.8014 12.4252 17.8094 12.4524 17.8174C12.4726 17.8233 12.4927 17.8291 12.5129 17.8348C12.5349 17.8409 12.5569 17.8469 12.579 17.8527C12.6047 17.8596 12.6304 17.8663 12.6563 17.8728C12.6745 17.8773 12.6928 17.8818 12.7111 17.8862C12.7409 17.8933 12.7707 17.9002 12.8006 17.9068C12.8161 17.9103 12.8316 17.9137 12.8472 17.917C12.8799 17.924 12.9128 17.9306 12.9458 17.9371C12.9592 17.9397 12.9726 17.9423 12.9861 17.9448C13.021 17.9513 13.0561 17.9574 13.0913 17.9633C13.1033 17.9653 13.1154 17.9674 13.1275 17.9693C13.1638 17.9751 13.2002 17.9804 13.2368 17.9855C13.2481 17.987 13.2594 17.9887 13.2707 17.9902C13.3077 17.9951 13.3449 17.9995 13.3821 18.0037C13.3932 18.0049 13.4042 18.0063 13.4153 18.0075C13.4524 18.0115 13.4897 18.0148 13.527 18.018C13.5383 18.019 13.5496 18.0201 13.5609 18.021C13.5977 18.0239 13.6346 18.0262 13.6716 18.0284C13.6835 18.0291 13.6953 18.0301 13.7072 18.0307C13.7446 18.0327 13.7821 18.034 13.8197 18.0352C13.831 18.0356 13.8422 18.0362 13.8536 18.0365C13.9021 18.0377 13.9509 18.0385 13.9997 18.0385C14.0486 18.0385 14.0973 18.0377 14.1459 18.0365C14.1572 18.0362 14.1685 18.0356 14.1798 18.0352C14.2174 18.034 14.2549 18.0326 14.2922 18.0307C14.3041 18.0301 14.316 18.0291 14.3278 18.0284C14.3648 18.0262 14.4018 18.0239 14.4386 18.021C14.4499 18.0201 14.4612 18.019 14.4725 18.018C14.5098 18.0148 14.5471 18.0114 14.5842 18.0075C14.5953 18.0064 14.6063 18.005 14.6174 18.0037C14.6546 17.9995 14.6918 17.9951 14.7288 17.9902C14.7401 17.9887 14.7514 17.9871 14.7627 17.9855C14.7992 17.9804 14.8357 17.9751 14.872 17.9693C14.8841 17.9674 14.8961 17.9653 14.9082 17.9633C14.9434 17.9574 14.9784 17.9513 15.0134 17.9448C15.0268 17.9423 15.0403 17.9397 15.0537 17.9371C15.0867 17.9307 15.1195 17.924 15.1523 17.917C15.1679 17.9137 15.1834 17.9103 15.1989 17.9068C15.2288 17.9002 15.2586 17.8933 15.2883 17.8862C15.3066 17.8818 15.3249 17.8773 15.3432 17.8728C15.369 17.8663 15.3948 17.8596 15.4205 17.8527C15.4425 17.8468 15.4646 17.8409 15.4865 17.8348C15.5067 17.8291 15.5269 17.8233 15.547 17.8174C15.5743 17.8094 15.6015 17.8014 15.6285 17.7931C15.6406 17.7893 15.6526 17.7854 15.6647 17.7816C15.8769 17.7145 16.0853 17.6351 16.2882 17.5425V19.9716H16.2881ZM15.5372 16.9729C15.5211 16.9785 15.505 16.9841 15.4888 16.9894C15.4643 16.9976 15.4396 17.0057 15.4149 17.0135C15.3861 17.0226 15.3572 17.0313 15.3282 17.0398C15.3078 17.0458 15.2874 17.0518 15.2668 17.0575C15.2285 17.0682 15.1901 17.0784 15.1515 17.0881C15.1371 17.0918 15.1227 17.0952 15.1083 17.0987C15.0705 17.1078 15.0326 17.1165 14.9946 17.1247C14.985 17.1268 14.9755 17.129 14.9659 17.131C14.9169 17.1412 14.8677 17.1508 14.8183 17.1594C14.8132 17.1603 14.8082 17.1611 14.8031 17.162C14.7586 17.1697 14.7139 17.1766 14.6692 17.183C14.6591 17.1845 14.649 17.1859 14.6389 17.1873C14.5912 17.1937 14.5434 17.1997 14.4954 17.2047C14.4936 17.2049 14.4918 17.2052 14.49 17.2054C14.4398 17.2106 14.3894 17.2149 14.3389 17.2185C14.328 17.2193 14.317 17.2198 14.3061 17.2206C14.2668 17.2231 14.2276 17.2251 14.1882 17.2267C14.1749 17.2272 14.1615 17.2278 14.1481 17.2282C14.0987 17.2297 14.0492 17.2308 13.9997 17.2308C13.9501 17.2308 13.9007 17.2298 13.8513 17.2282C13.8379 17.2278 13.8245 17.2272 13.8112 17.2266C13.7718 17.2251 13.7326 17.2231 13.6933 17.2205C13.6824 17.2198 13.6714 17.2192 13.6604 17.2184C13.61 17.2148 13.5596 17.2105 13.5094 17.2053C13.5076 17.2051 13.5058 17.2049 13.504 17.2047C13.456 17.1997 13.4082 17.1937 13.3605 17.1872C13.3504 17.1858 13.3403 17.1844 13.3302 17.1829C13.2854 17.1766 13.2408 17.1696 13.1963 17.1619C13.1912 17.1611 13.1862 17.1603 13.1811 17.1594C13.1317 17.1507 13.0825 17.1411 13.0334 17.1309C13.0239 17.1289 13.0144 17.1267 13.0048 17.1247C12.9668 17.1165 12.9289 17.1078 12.8911 17.0986C12.8767 17.0951 12.8622 17.0917 12.8479 17.0881C12.8093 17.0784 12.7709 17.0681 12.7326 17.0574C12.712 17.0517 12.6916 17.0457 12.6711 17.0397C12.6422 17.0312 12.6133 17.0225 12.5845 17.0134C12.5597 17.0056 12.5351 16.9976 12.5105 16.9894C12.4943 16.984 12.4782 16.9784 12.4622 16.9729C10.6169 16.3341 9.28815 14.579 9.28815 12.5192C9.28815 9.9213 11.4017 7.80768 13.9997 7.80768C16.5977 7.80768 18.7112 9.92127 18.7112 12.5192C18.7112 14.579 17.3825 16.3341 15.5372 16.9729Z" fill="#FFC107"/>
<path d="M16.3955 12.5192L17.1541 11.0935C17.2195 10.9706 17.2169 10.8225 17.1473 10.7019C17.0777 10.5813 16.9508 10.5051 16.8115 10.5002L15.1976 10.4443L14.3422 9.07457C14.2684 8.95645 14.1389 8.88464 13.9996 8.88464C13.8603 8.88464 13.7309 8.95645 13.6571 9.07457L12.8017 10.4443L11.1877 10.5002C11.0485 10.5051 10.9216 10.5813 10.852 10.7019C10.7823 10.8225 10.7797 10.9706 10.8452 11.0935L11.6037 12.5192L10.8452 13.9449C10.7797 14.0679 10.7823 14.2159 10.852 14.3365C10.9216 14.4571 11.0485 14.5334 11.1877 14.5382L12.8017 14.5941L13.6571 15.9639C13.7309 16.082 13.8603 16.1538 13.9996 16.1538C14.1389 16.1538 14.2684 16.082 14.3422 15.9639L15.1975 14.5941L16.8115 14.5382C16.9507 14.5334 17.0776 14.4571 17.1473 14.3365C17.2169 14.2159 17.2195 14.0679 17.1541 13.9449L16.3955 12.5192ZM14.9549 13.7944C14.8206 13.799 14.6975 13.8701 14.6263 13.9841L13.9996 14.9876L13.3729 13.9841C13.3018 13.8701 13.1786 13.7991 13.0444 13.7944L11.862 13.7534L12.4177 12.7089C12.4808 12.5903 12.4808 12.4481 12.4177 12.3295L11.862 11.2851L13.0444 11.2441C13.1786 11.2394 13.3018 11.1683 13.3729 11.0544L13.9996 10.0509L14.6263 11.0544C14.6975 11.1683 14.8206 11.2394 14.9548 11.2441L16.1372 11.2851L15.5815 12.3296C15.5185 12.4482 15.5185 12.5904 15.5816 12.7089L16.1373 13.7534L14.9549 13.7944Z" fill="#FFC107"/>
</svg>
