<svg width="27" height="27" viewBox="0 0 27 27" fill="none" xmlns="http://www.w3.org/2000/svg">
<circle cx="13.5" cy="13.5" r="13" fill="white" stroke="#FC563B"/>
<g clip-path="url(#clip0_601_574)">
<path d="M20.3961 11.4822C20.683 11.8482 20.8206 12.2405 20.803 12.6445C20.7854 13.0895 20.5864 13.4379 20.4224 13.6516C20.6127 14.1259 20.6859 14.8724 20.0506 15.4521C19.5851 15.8766 18.7946 16.0669 17.6997 16.0142C16.9297 15.9791 16.2857 15.8356 16.2593 15.8298H16.2564C16.11 15.8034 15.9548 15.7712 15.7967 15.7361C15.785 15.9235 15.8172 16.389 16.1627 17.4371C16.5726 18.6842 16.5491 19.6386 16.0866 20.2769C15.6006 20.9473 14.8248 21 14.5964 21C14.3768 21 14.1748 20.9092 14.0314 20.7424C13.7064 20.3647 13.7445 19.6679 13.7854 19.3459C13.399 18.3095 12.3158 15.7683 11.3994 15.0627C11.3818 15.051 11.3672 15.0364 11.3526 15.0217C11.0832 14.7378 10.9017 14.4304 10.7788 14.161C10.606 14.2547 10.4099 14.3074 10.1991 14.3074H8.41321C7.73985 14.3074 7.19531 13.7599 7.19531 13.0895V8.33208C7.19531 7.65872 7.74278 7.11418 8.41321 7.11418H10.1991C10.4596 7.11418 10.7026 7.19615 10.9017 7.33668L11.5897 7.25471C11.6951 7.24007 13.5688 7.00293 15.4923 7.04099C15.8406 7.01464 16.1685 7 16.473 7C16.9971 7 17.4538 7.04099 17.8344 7.12296C18.7302 7.31326 19.3421 7.69385 19.6524 8.25303C19.8896 8.68047 19.8896 9.10498 19.8515 9.37432C20.4341 9.9013 20.5366 10.4839 20.5161 10.8938C20.5044 11.1309 20.4517 11.3329 20.3961 11.4822ZM8.41321 7.90464C8.17607 7.90464 7.98578 8.09787 7.98578 8.33208V13.0924C7.98578 13.3296 8.179 13.5199 8.41321 13.5199H10.1991C10.4362 13.5199 10.6265 13.3266 10.6265 13.0924V8.33501C10.6265 8.09787 10.4333 7.90757 10.1991 7.90757H8.41321V7.90464ZM19.6466 11.8248C19.5236 11.6959 19.5002 11.4998 19.5939 11.3476C19.5939 11.3446 19.7139 11.1397 19.7286 10.8586C19.7491 10.4751 19.5646 10.1355 19.1782 9.84567C19.0406 9.74028 18.9849 9.55876 19.0435 9.39481C19.0435 9.39189 19.1694 9.00544 18.9644 8.63948C18.7683 8.28816 18.3321 8.03639 17.6704 7.89586C17.1405 7.78168 16.4203 7.76119 15.5362 7.83145C15.5245 7.83145 15.5098 7.83145 15.4952 7.83145C13.6127 7.79046 11.7097 8.03639 11.6892 8.03931H11.6863L11.3906 8.07445C11.4082 8.15642 11.417 8.24425 11.417 8.33208V13.0924C11.417 13.2183 11.3965 13.3413 11.3614 13.4555C11.414 13.6516 11.5604 14.0878 11.9059 14.4596C13.2204 15.5019 14.5056 19.018 14.5613 19.1702C14.5847 19.2317 14.5905 19.299 14.5788 19.3664C14.5291 19.6943 14.5466 20.0954 14.6169 20.2154C14.7721 20.2125 15.1907 20.1685 15.4425 19.8202C15.7411 19.4074 15.7294 18.6696 15.4074 17.6918C14.9155 16.2016 14.8745 15.417 15.2639 15.0715C15.4571 14.8988 15.7148 14.89 15.9021 14.9573C16.0807 14.9983 16.2505 15.0335 16.4115 15.0598C16.4233 15.0627 16.4379 15.0657 16.4496 15.0686C17.3484 15.2647 18.9586 15.3848 19.5178 14.8754C19.9921 14.4421 19.6554 13.8683 19.6173 13.8068C19.509 13.6428 19.5412 13.4291 19.6876 13.2974C19.6905 13.2944 19.9979 13.0046 20.0125 12.6152C20.0243 12.3547 19.9013 12.0882 19.6466 11.8248Z" fill="#FC563B"/>
</g>
<defs>
<clipPath id="clip0_601_574">
<rect width="14" height="14" fill="white" transform="matrix(1 0 0 -1 7 21)"/>
</clipPath>
</defs>
</svg>
