<svg width="16" height="16" viewBox="0 0 16 16" fill="none" xmlns="http://www.w3.org/2000/svg">
<path d="M15.3102 5.12254C15.6381 5.54078 15.7954 5.98913 15.7753 6.45086C15.7552 6.95943 15.5277 7.35759 15.3403 7.60184C15.5578 8.14387 15.6414 8.99707 14.9154 9.65956C14.3834 10.1447 13.48 10.3622 12.2287 10.302C11.3487 10.2618 10.6126 10.0979 10.5825 10.0912H10.5791C10.4118 10.0611 10.2345 10.0243 10.0538 9.98411C10.0404 10.1982 10.0773 10.7302 10.4721 11.9281C10.9405 13.3534 10.9137 14.4442 10.3851 15.1736C9.82966 15.9398 8.943 16 8.68202 16C8.43108 16 8.20021 15.8963 8.03626 15.7056C7.66487 15.2739 7.70837 14.4776 7.75521 14.1096C7.31355 12.9251 6.07558 10.0209 5.02832 9.21455C5.00824 9.20117 4.99151 9.18444 4.97478 9.16771C4.66696 8.84316 4.45952 8.49184 4.31899 8.18402C4.12158 8.29109 3.89741 8.35132 3.65651 8.35132H1.61552C0.845967 8.35132 0.223633 7.72564 0.223633 6.95943V1.52238C0.223633 0.752823 0.849313 0.13049 1.61552 0.13049H3.65651C3.95429 0.13049 4.232 0.224174 4.45952 0.384776L5.2458 0.291092C5.36625 0.274363 7.50762 0.00334644 9.70586 0.0468435C10.104 0.0167303 10.4788 0 10.8267 0C11.4256 0 11.9476 0.0468426 12.3826 0.140528C13.4064 0.358009 14.1057 0.792974 14.4604 1.43204C14.7314 1.92054 14.7314 2.40569 14.6879 2.71351C15.3537 3.31577 15.4708 3.9816 15.4474 4.45002C15.434 4.72104 15.3738 4.9519 15.3102 5.12254ZM1.61552 1.03388C1.3445 1.03388 1.12702 1.25471 1.12702 1.52238V6.96278C1.12702 7.23379 1.34785 7.45128 1.61552 7.45128H3.65651C3.92752 7.45128 4.145 7.23045 4.145 6.96278V1.52572C4.145 1.25471 3.92418 1.03722 3.65651 1.03722H1.61552V1.03388ZM14.4537 5.51401C14.3131 5.36679 14.2864 5.14262 14.3934 4.96863C14.3934 4.96529 14.5306 4.73108 14.5473 4.40987C14.5708 3.97156 14.36 3.58344 13.9183 3.2522C13.7611 3.13174 13.6975 2.9243 13.7644 2.73693C13.7644 2.73358 13.9083 2.29193 13.6741 1.87369C13.4499 1.47219 12.9514 1.18444 12.1952 1.02384C11.5896 0.893351 10.7665 0.869929 9.75605 0.950231C9.74266 0.950231 9.72593 0.950231 9.7092 0.950231C7.5578 0.903389 5.38298 1.18444 5.35956 1.18779H5.35621L5.01828 1.22794C5.03835 1.32162 5.04839 1.422 5.04839 1.52238V6.96278C5.04839 7.10665 5.02497 7.24718 4.98482 7.37767C5.04505 7.60184 5.21234 8.10038 5.60715 8.5253C7.10945 9.71644 8.5783 13.7348 8.64187 13.9088C8.66863 13.9791 8.67533 14.056 8.66194 14.133C8.60506 14.5077 8.62514 14.9661 8.70544 15.1033C8.88277 15.1 9.36123 15.0498 9.64898 14.6516C9.99026 14.1798 9.97687 13.3367 9.60883 12.2192C9.04672 10.5161 8.99988 9.61941 9.44488 9.22459C9.66571 9.02719 9.96014 9.01715 10.1743 9.0941C10.3784 9.14095 10.5724 9.1811 10.7565 9.21121C10.7698 9.21455 10.7866 9.2179 10.8 9.22125C11.8271 9.44542 13.6674 9.5826 14.3064 9.00042C14.8485 8.50523 14.4637 7.84944 14.4202 7.77917C14.2964 7.5918 14.3332 7.34755 14.5005 7.19699C14.5038 7.19364 14.8552 6.8624 14.8719 6.4174C14.8853 6.11962 14.7448 5.81514 14.4537 5.51401Z" fill="#FC563B"/>
</svg>
