<svg width="15" height="13" viewBox="0 0 15 13" fill="none" xmlns="http://www.w3.org/2000/svg">
<path d="M12.0236 0.753686C12.0333 0.293909 12.0158 0.00339497 12.0158 0.00339497L7.52279 0H7.5H7.47721L2.9837 0.00339497C2.9837 0.00339497 2.96673 0.293909 2.97643 0.753686H0V1.2445C0 1.35654 0.0189149 3.99929 1.64996 5.44701C2.33041 6.05083 3.17916 6.35444 4.17971 6.35492C4.33103 6.35492 4.48671 6.34474 4.64434 6.33116C5.21275 7.10958 5.86944 7.65472 6.60809 7.92631V10.0821H4.43967V11.4324H3.72333V12.1894H7.47721H7.52279H11.2767V11.4328H10.5598V10.0826H8.39143V7.9268C9.12959 7.6552 9.78676 7.11006 10.3552 6.33164C10.5138 6.34522 10.6695 6.35492 10.8208 6.35492C11.8208 6.35395 12.6696 6.05083 13.35 5.44652C14.9811 3.9988 15 1.35605 15 1.24402V0.753686H12.0236ZM2.30471 4.71515C1.37303 3.89065 1.09755 2.47931 1.01607 1.73532H3.03269C3.11805 2.66215 3.31884 3.81693 3.78201 4.83203C3.86688 5.01827 3.95612 5.19481 4.0473 5.36747C3.3523 5.34079 2.7674 5.124 2.30471 4.71515ZM12.6953 4.71515C12.2331 5.12448 11.6477 5.34079 10.9532 5.36747C11.0444 5.19529 11.1336 5.01827 11.2185 4.83203C11.6816 3.81693 11.8824 2.66215 11.9673 1.73532H13.9839C13.9025 2.47882 13.6275 3.89016 12.6953 4.71515Z" fill="#6195FF"/>
</svg>
