<svg width="15" height="15" viewBox="0 0 15 15" fill="none" xmlns="http://www.w3.org/2000/svg">
<path d="M13.3929 0H1.60714C0.719541 0 0 0.719541 0 1.60714V13.3929C0 14.2805 0.719541 15 1.60714 15H13.3929C14.2805 15 15 14.2805 15 13.3929V1.60714C15 0.719541 14.2805 0 13.3929 0ZM4.82143 11.7857H3.21428C2.91841 11.7857 2.67856 11.5459 2.67856 11.25C2.67856 10.9541 2.91841 10.7143 3.21428 10.7143H4.82143C5.1173 10.7143 5.35715 10.9541 5.35715 11.25C5.35715 11.5459 5.1173 11.7857 4.82143 11.7857ZM4.82143 8.03571H3.21428C2.91841 8.03571 2.67856 7.79586 2.67856 7.49998C2.67856 7.20411 2.91841 6.96426 3.21428 6.96426H4.82143C5.1173 6.96426 5.35715 7.20411 5.35715 7.49998C5.35715 7.79586 5.1173 8.03571 4.82143 8.03571ZM4.82143 4.2857H3.21428C2.91841 4.2857 2.67856 4.04585 2.67856 3.74998C2.67856 3.4541 2.91841 3.21428 3.21428 3.21428H4.82143C5.1173 3.21428 5.35715 3.45413 5.35715 3.75001C5.35715 4.04589 5.1173 4.2857 4.82143 4.2857ZM11.7857 11.7857H6.96429C6.66841 11.7857 6.42857 11.5459 6.42857 11.25C6.42857 10.9541 6.66841 10.7143 6.96429 10.7143H11.7857C12.0816 10.7143 12.3214 10.9541 12.3214 11.25C12.3214 11.5459 12.0816 11.7857 11.7857 11.7857ZM11.7857 8.03571H6.96429C6.66841 8.03571 6.42857 7.79586 6.42857 7.49998C6.42857 7.20411 6.66841 6.96426 6.96429 6.96426H11.7857C12.0816 6.96426 12.3214 7.20411 12.3214 7.49998C12.3214 7.79586 12.0816 8.03571 11.7857 8.03571ZM11.7857 4.2857H6.96429C6.66841 4.2857 6.42857 4.04585 6.42857 3.74998C6.42857 3.4541 6.66841 3.21425 6.96429 3.21425H11.7857C12.0816 3.21425 12.3214 3.4541 12.3214 3.74998C12.3214 4.04585 12.0816 4.2857 11.7857 4.2857Z" fill="#6195FF"/>
</svg>
